<svg class="h-7 w-auto" viewBox="0 0 95 65" fill="none" xmlns="http://www.w3.org/2000/svg"><path d="M34.5498 17.2749L32.4393 18.563C29.1931 20.5442 27.57 21.5349 26.1237 22.7354C24.892 23.7577 23.7577 24.892 22.7354 26.1237C21.5349 27.57 20.5442 29.1931 18.563 32.4393L17.2749 34.5498L15.9868 32.4392C14.0055 29.1931 13.0149 27.57 11.8144 26.1237C10.792 24.892 9.65776 23.7577 8.42611 22.7354C6.9798 21.5349 5.35671 20.5442 2.11058 18.563L0 17.2749L2.11054 15.9868C5.3567 14.0055 6.97979 13.0149 8.42611 11.8144C9.65776 10.792 10.792 9.65775 11.8144 8.4261C13.0149 6.97978 14.0055 5.35669 15.9868 2.1105L17.2749 -7.62939e-06L18.563 2.1105C20.5442 5.35667 21.5349 6.97979 22.7354 8.4261C23.7577 9.65775 24.892 10.792 26.1237 11.8144C27.57 13.0149 29.1931 14.0055 32.4393 15.9868L34.5498 17.2749Z" fill="#377DFF"></path><path d="M13.6158 56.6041L18.7225 59.4925C37.2542 69.9744 60.9833 63.0549 71.8997 44.5155C75.512 38.3809 77.3088 31.6855 77.4181 25.0822L77.489 20.9318L85.7175 29.1604L94.0146 20.8633L76.0075 2.85614C73.7163 0.564953 70.0015 0.564953 67.7104 2.85614L49.2125 21.354L57.5096 29.6511L65.7451 21.4156L65.6859 24.8856C65.6102 29.4842 64.361 34.193 61.7885 38.5617C53.9539 51.8672 37.1794 56.4513 24.4994 49.2792L19.3927 46.3908L13.6158 56.6041Z" fill="#377DFF"></path></svg>